<svg viewBox="0 0 240.01 47.55">
  <path d="M47.05 1.21v45.84H1.21l42.7-42.69 3.14-3.15z"/>
  <path d="M52.07 40.55l4.12-4.67a19.68 19.68 0 0013.11 5.24c5.8 0 9-2.57 9-6.13 0-4.33-3.35-5.53-7.89-7.38L64 24.88c-4.68-1.79-9.82-5.06-9.82-11.57 0-6.89 6.44-12.1 15.49-12.1A21 21 0 0184 6.75l-3.6 4.33a16.49 16.49 0 00-11.07-3.94c-4.83 0-8.07 2.15-8.07 5.77 0 3.84 4 5.24 8 6.75l6.22 2.64c5.75 2.17 10 5.4 10 11.86 0 7.1-6.22 12.89-16.61 12.89a24.52 24.52 0 01-16.8-6.5zM93.76 1.21h28.9v5.92h-21.87v13h18.5v5.92h-18.5v15.08h22.57v5.92h-29.6z"/>
  <path d="M130.46 1.21h11.67c13.65 0 21.45 7.86 21.45 22.71s-7.8 23.13-21.09 23.13h-12zm11.21 40.11c9.57 0 14.66-6 14.66-17.4s-5.09-17-14.66-17h-4.18v34.4zM172.06 1.21h7v39.92h22.04v5.92h-29zM206.06 40.55l4.13-4.67a19.68 19.68 0 0013.1 5.24c5.81 0 9-2.57 9-6.13 0-4.33-3.35-5.53-7.89-7.38l-6.4-2.73c-4.68-1.79-9.82-5.06-9.82-11.57 0-6.89 6.43-12.1 15.48-12.1A21 21 0 01238 6.75l-3.63 4.33a16.54 16.54 0 00-11.08-3.94c-4.82 0-8.07 2.15-8.07 5.77 0 3.84 4 5.24 8 6.75l6.22 2.64c5.75 2.17 10 5.4 10 11.86 0 7.1-6.21 12.89-16.6 12.89a24.57 24.57 0 01-16.78-6.5z"/>
</svg>