<svg xmlns="http://www.w3.org/2000/svg" viewBox="0 0 159.46 201.09"><defs><style>.cls-1,.cls-3{fill:#231f20;}.cls-2{fill:#fff;}.cls-2,.cls-3{stroke:#231f20;stroke-miterlimit:10;}</style></defs><title>logo-square</title><g id="Layer_2" data-name="Layer 2"><g id="Layer_1-2" data-name="Layer 1"><polygon class="cls-1" points="158.96 0 158.96 158.28 0.69 158.28 158.96 0"/><text/><path class="cls-2" d="M.68,195.29l3.25-3.8a15.17,15.17,0,0,0,10.29,4.27c4.56,0,7.09-2.1,7.09-5,0-3.52-2.63-4.5-6.2-6L10,182.53c-3.68-1.45-7.71-4.12-7.71-9.42,0-5.61,5.05-9.86,12.16-9.86a16.16,16.16,0,0,1,11.31,4.52l-2.85,3.52a12.73,12.73,0,0,0-8.7-3.21c-3.79,0-6.33,1.76-6.33,4.7,0,3.13,3.1,4.27,6.28,5.5l4.88,2.15c4.52,1.76,7.89,4.4,7.89,9.66,0,5.78-4.88,10.5-13,10.5A18.93,18.93,0,0,1,.68,195.29Z"/><path class="cls-2" d="M36.2,163.91H58.89v4.66H41.72v10.21H56.25v4.66H41.72v11.83H59.44v4.66H36.2Z"/><path class="cls-3" d="M67.78,163.91H77c10.72,0,16.85,6.18,16.85,17.84s-6.13,18.18-16.57,18.18H67.78Zm8.81,31.51c7.51,0,11.51-4.68,11.51-13.67s-4-13.33-11.51-13.33H73.31v27Z"/><path class="cls-3" d="M103.21,163.91h5.48v31.36H126v4.66H103.21Z"/><path class="cls-3" d="M132.68,195.29l3.25-3.8a15.17,15.17,0,0,0,10.29,4.27c4.56,0,7.09-2.1,7.09-5,0-3.52-2.63-4.5-6.2-6L142,182.53c-3.68-1.45-7.71-4.12-7.71-9.42,0-5.61,5.05-9.86,12.16-9.86a16.16,16.16,0,0,1,11.31,4.52l-2.85,3.52a12.73,12.73,0,0,0-8.7-3.21c-3.79,0-6.34,1.76-6.34,4.7,0,3.13,3.11,4.27,6.28,5.5l4.89,2.15c4.52,1.76,7.89,4.4,7.89,9.66,0,5.78-4.88,10.5-13,10.5A18.93,18.93,0,0,1,132.68,195.29Z"/></g></g></svg>